<svg xmlns="http://www.w3.org/2000/svg" xmlns:xlink="http://www.w3.org/1999/xlink" viewBox="0 0 192 192"><defs><style>.cls-1{isolation:isolate;}.cls-2{fill:url(#linear-gradient);}.cls-3{fill:#570dcc;opacity:0.5;}.cls-4{fill:#fff;}.cls-5{opacity:0.25;mix-blend-mode:overlay;fill:url(#linear-gradient-2);}</style><linearGradient id="linear-gradient" x1="-5.35" y1="13.31" x2="282.22" y2="247.93" gradientUnits="userSpaceOnUse"><stop offset="0" stop-color="#7c17ff"/><stop offset="0.14" stop-color="#8216f9"/><stop offset="0.33" stop-color="#9313e9"/><stop offset="0.55" stop-color="#af0ece"/><stop offset="0.79" stop-color="#d607a8"/><stop offset="1" stop-color="#ff0080"/></linearGradient><linearGradient id="linear-gradient-2" x1="366.23" y1="288.91" x2="11.82" y2="35.91" gradientUnits="userSpaceOnUse"><stop offset="0.05" stop-color="#7c17ff"/><stop offset="0.19" stop-color="#8216f9"/><stop offset="0.37" stop-color="#9313e9"/><stop offset="0.57" stop-color="#af0ece"/><stop offset="0.8" stop-color="#d607a8"/><stop offset="1" stop-color="#ff0080"/></linearGradient></defs><title>192 x 192</title><g class="cls-1"><g id="Layer_1" data-name="Layer 1"><rect class="cls-2" width="192" height="192" rx="33.46"/><path class="cls-3" d="M131.72,141.33l-25.94-37.87a1.19,1.19,0,0,1,.08-1.45l60.9-70.2a1.18,1.18,0,0,0-.9-2h-9.22a57.42,57.42,0,0,0-39.82,16l-.09.09L72.06,98.51l-1.42,1.68L50,124.47a1.19,1.19,0,0,1-2.1-.77h0a1.17,1.17,0,0,1,.29-.77l23.6-27.68a1.18,1.18,0,0,0,.28-.77V48.77a1.19,1.19,0,0,0-1.19-1.19H45a1.19,1.19,0,0,0-1.19,1.19v111.3A1.19,1.19,0,0,0,45,161.26H50.4A21.66,21.66,0,0,0,72.06,139.6v-1.37a1.2,1.2,0,0,1,.31-.8l9.18-10.09a1.21,1.21,0,0,1,1.87.13L112,169.4a1.2,1.2,0,0,0,1,.52h36.11a1.2,1.2,0,0,0,1-1.87l-9.81-14.31Z"/><path class="cls-4" d="M128,137.58,101.51,99,164.72,26.1H152.89A57.42,57.42,0,0,0,113,42.18L68.31,94.76l-1.42,1.68L44.14,123.19v-3.68L68.31,91.17V43.83H40V157.51h7.81A20.46,20.46,0,0,0,68.31,137v-3l10.51-11.54,29.74,43.69h39L136.47,150Z"/><rect class="cls-5" x="21.75" y="21.75" width="148.5" height="148.5" rx="50.48"/></g></g></svg>