<svg xmlns="http://www.w3.org/2000/svg" xmlns:xlink="http://www.w3.org/1999/xlink" viewBox="0 0 64 64"><defs><style>.cls-1{isolation:isolate;}.cls-2{fill:url(#linear-gradient);}.cls-3{fill:#570dcc;opacity:0.5;}.cls-4{fill:#fff;}.cls-5{opacity:0.25;mix-blend-mode:overlay;fill:url(#linear-gradient-2);}</style><linearGradient id="linear-gradient" x1="-1.78" y1="4.44" x2="94.07" y2="82.64" gradientUnits="userSpaceOnUse"><stop offset="0" stop-color="#7c17ff"/><stop offset="0.14" stop-color="#8216f9"/><stop offset="0.33" stop-color="#9313e9"/><stop offset="0.55" stop-color="#af0ece"/><stop offset="0.79" stop-color="#d607a8"/><stop offset="1" stop-color="#ff0080"/></linearGradient><linearGradient id="linear-gradient-2" x1="125.31" y1="98.61" x2="2.93" y2="11.25" gradientUnits="userSpaceOnUse"><stop offset="0.05" stop-color="#7c17ff"/><stop offset="0.19" stop-color="#8216f9"/><stop offset="0.37" stop-color="#9313e9"/><stop offset="0.57" stop-color="#af0ece"/><stop offset="0.8" stop-color="#d607a8"/><stop offset="1" stop-color="#ff0080"/></linearGradient></defs><title>64 x 64</title><g class="cls-1"><g id="Layer_1" data-name="Layer 1"><rect class="cls-2" width="64" height="64" rx="11.15"/><path class="cls-3" d="M43.91,47.11,35.26,34.49a.41.41,0,0,1,0-.49l20.3-23.4a.39.39,0,0,0-.3-.65H52.21A19.12,19.12,0,0,0,38.94,15.3l0,0L24,32.84l-.47.56-6.89,8.09a.4.4,0,0,1-.7-.26h0a.39.39,0,0,1,.1-.25l7.87-9.23a.39.39,0,0,0,.09-.26V16.26a.4.4,0,0,0-.4-.4H15a.4.4,0,0,0-.4.4v37.1a.39.39,0,0,0,.4.39H16.8A7.22,7.22,0,0,0,24,46.53v-.45a.43.43,0,0,1,.1-.27l3.06-3.36a.41.41,0,0,1,.63,0l9.51,14a.42.42,0,0,0,.33.17h12A.4.4,0,0,0,50,56l-3.27-4.77Z"/><path class="cls-4" d="M42.66,45.86,33.84,33,54.91,8.7H51a19.16,19.16,0,0,0-13.29,5.36L22.77,31.59l-.47.56-7.59,8.91V39.84l8.06-9.45V14.61H13.34V52.5H16a6.82,6.82,0,0,0,6.82-6.82v-1l3.5-3.84,9.92,14.56h13L45.49,50Z"/><rect class="cls-5" x="7.25" y="7.25" width="49.5" height="49.5" rx="14.29"/></g></g></svg>