<?xml version="1.0" encoding="UTF-8"?>
<svg xmlns="http://www.w3.org/2000/svg" xmlns:xlink="http://www.w3.org/1999/xlink" width="32pt" height="32pt" viewBox="0 0 32 32" version="1.1">
<defs>
<linearGradient id="linear0" gradientUnits="userSpaceOnUse" x1="-14.27" y1="35.5" x2="752.59" y2="661.15" gradientTransform="matrix(0.0625,0,0,0.0625,0,0)">
<stop offset="0" style="stop-color:rgb(48.627451%,9.019608%,100%);stop-opacity:1;"/>
<stop offset="0.14" style="stop-color:rgb(50.980392%,8.627451%,97.647059%);stop-opacity:1;"/>
<stop offset="0.33" style="stop-color:rgb(57.647059%,7.45098%,91.372549%);stop-opacity:1;"/>
<stop offset="0.55" style="stop-color:rgb(68.627451%,5.490196%,80.784314%);stop-opacity:1;"/>
<stop offset="0.79" style="stop-color:rgb(83.921569%,2.745098%,65.882353%);stop-opacity:1;"/>
<stop offset="1" style="stop-color:rgb(100%,0%,50.196078%);stop-opacity:1;"/>
</linearGradient>
<filter id="alpha" filterUnits="objectBoundingBox" x="0%" y="0%" width="100%" height="100%">
  <feColorMatrix type="matrix" in="SourceGraphic" values="0 0 0 0 1 0 0 0 0 1 0 0 0 0 1 0 0 0 1 0"/>
</filter>
<mask id="mask0">
  <g filter="url(#alpha)">
<rect x="0" y="0" width="32" height="32" style="fill:rgb(0%,0%,0%);fill-opacity:0.501961;stroke:none;"/>
  </g>
</mask>
<clipPath id="clip1">
  <rect x="0" y="0" width="32" height="32"/>
</clipPath>
<g id="surface5" clip-path="url(#clip1)">
<path style=" stroke:none;fill-rule:nonzero;fill:rgb(34.117647%,5.098039%,80%);fill-opacity:1;" d="M 21.953125 23.554688 L 17.628906 17.242188 C 17.578125 17.167969 17.585938 17.070312 17.644531 17 L 27.792969 5.300781 C 27.84375 5.242188 27.855469 5.160156 27.824219 5.089844 C 27.792969 5.019531 27.722656 4.972656 27.644531 4.972656 L 26.105469 4.972656 C 23.632812 4.972656 21.253906 5.933594 19.46875 7.648438 C 19.464844 7.652344 19.460938 7.660156 19.453125 7.664062 L 12.011719 16.417969 L 11.773438 16.699219 L 8.332031 20.746094 C 8.277344 20.808594 8.191406 20.832031 8.113281 20.804688 C 8.035156 20.773438 7.984375 20.699219 7.984375 20.617188 C 7.984375 20.570312 8 20.523438 8.03125 20.488281 L 11.960938 15.875 C 11.992188 15.839844 12.011719 15.792969 12.011719 15.746094 L 12.011719 8.125 C 12.011719 8.015625 11.921875 7.925781 11.8125 7.925781 L 7.496094 7.925781 C 7.441406 7.925781 7.390625 7.949219 7.355469 7.984375 C 7.316406 8.023438 7.296875 8.074219 7.296875 8.125 L 7.296875 26.679688 C 7.296875 26.730469 7.316406 26.78125 7.355469 26.820312 C 7.390625 26.855469 7.441406 26.878906 7.496094 26.875 L 8.398438 26.875 C 10.394531 26.875 12.007812 25.261719 12.011719 23.265625 L 12.011719 23.039062 C 12.011719 22.988281 12.027344 22.941406 12.0625 22.90625 L 13.59375 21.222656 C 13.632812 21.179688 13.691406 21.152344 13.753906 21.160156 C 13.816406 21.164062 13.871094 21.195312 13.90625 21.246094 L 18.660156 28.234375 C 18.699219 28.285156 18.761719 28.320312 18.824219 28.320312 L 24.84375 28.320312 C 24.917969 28.320312 24.984375 28.277344 25.019531 28.214844 C 25.054688 28.148438 25.050781 28.066406 25.007812 28.007812 L 23.371094 25.625 Z M 21.953125 23.554688 "/>
</g>
<mask id="mask1">
  <g filter="url(#alpha)">
<rect x="0" y="0" width="32" height="32" style="fill:rgb(0%,0%,0%);fill-opacity:0.25098;stroke:none;"/>
  </g>
</mask>
<linearGradient id="linear1" gradientUnits="userSpaceOnUse" x1="976.61" y1="770.43" x2="31.52" y2="95.75" gradientTransform="matrix(0.0625,0,0,0.0625,0,0)">
<stop offset="0.05" style="stop-color:rgb(48.627451%,9.019608%,100%);stop-opacity:1;"/>
<stop offset="0.19" style="stop-color:rgb(50.980392%,8.627451%,97.647059%);stop-opacity:1;"/>
<stop offset="0.37" style="stop-color:rgb(57.647059%,7.45098%,91.372549%);stop-opacity:1;"/>
<stop offset="0.57" style="stop-color:rgb(68.627451%,5.490196%,80.784314%);stop-opacity:1;"/>
<stop offset="0.8" style="stop-color:rgb(83.921569%,2.745098%,65.882353%);stop-opacity:1;"/>
<stop offset="1" style="stop-color:rgb(100%,0%,50.196078%);stop-opacity:1;"/>
</linearGradient>
<clipPath id="clip2">
  <rect x="0" y="0" width="32" height="32"/>
</clipPath>
<g id="surface8" clip-path="url(#clip2)">
<path style=" stroke:none;fill-rule:nonzero;fill:url(#linear1);" d="M 12.039062 3.625 L 19.960938 3.625 C 24.609375 3.625 28.375 7.390625 28.375 12.039062 L 28.375 19.960938 C 28.375 24.609375 24.609375 28.375 19.960938 28.375 L 12.039062 28.375 C 7.390625 28.375 3.625 24.609375 3.625 19.960938 L 3.625 12.039062 C 3.625 7.390625 7.390625 3.625 12.039062 3.625 Z M 12.039062 3.625 "/>
</g>
</defs>
<g id="surface1">
<path style=" stroke:none;fill-rule:nonzero;fill:url(#linear0);" d="M 5.578125 0 L 26.421875 0 C 29.503906 0 32 2.496094 32 5.578125 L 32 26.421875 C 32 29.503906 29.503906 32 26.421875 32 L 5.578125 32 C 2.496094 32 0 29.503906 0 26.421875 L 0 5.578125 C 0 2.496094 2.496094 0 5.578125 0 Z M 5.578125 0 "/>
<use xlink:href="#surface5" mask="url(#mask0)"/>
<path style=" stroke:none;fill-rule:nonzero;fill:rgb(100%,100%,100%);fill-opacity:1;" d="M 21.328125 22.929688 L 16.917969 16.492188 L 27.453125 4.347656 L 25.480469 4.347656 C 23.003906 4.347656 20.621094 5.3125 18.835938 7.03125 L 11.386719 15.792969 L 11.148438 16.074219 L 7.359375 20.53125 L 7.359375 19.917969 L 11.386719 15.195312 L 11.386719 7.304688 L 6.671875 7.304688 L 6.671875 26.25 L 7.972656 26.25 C 9.859375 26.25 11.386719 24.722656 11.386719 22.839844 L 11.386719 22.339844 L 13.136719 20.414062 L 18.09375 27.695312 L 24.59375 27.695312 L 22.746094 25 Z M 21.328125 22.929688 "/>
<use xlink:href="#surface8" mask="url(#mask1)"/>
</g>
</svg>
